<svg xmlns="http://www.w3.org/2000/svg" viewBox="0 0 1440 320"><path fill="#2A3140" fill-opacity="1" d="M0,32L0,256L65.5,256L65.5,32L130.9,32L130.9,224L196.4,224L196.4,256L261.8,256L261.8,128L327.3,128L327.3,192L392.7,192L392.7,128L458.2,128L458.2,224L523.6,224L523.6,0L589.1,0L589.1,96L654.5,96L654.5,128L720,128L720,288L785.5,288L785.5,192L850.9,192L850.9,128L916.4,128L916.4,224L981.8,224L981.8,128L1047.3,128L1047.3,224L1112.7,224L1112.7,256L1178.2,256L1178.2,160L1243.6,160L1243.6,160L1309.1,160L1309.1,256L1374.5,256L1374.5,64L1440,64L1440,320L1374.5,320L1374.5,320L1309.1,320L1309.1,320L1243.6,320L1243.6,320L1178.2,320L1178.2,320L1112.7,320L1112.7,320L1047.3,320L1047.3,320L981.8,320L981.8,320L916.4,320L916.4,320L850.9,320L850.9,320L785.5,320L785.5,320L720,320L720,320L654.5,320L654.5,320L589.1,320L589.1,320L523.6,320L523.6,320L458.2,320L458.2,320L392.7,320L392.7,320L327.3,320L327.3,320L261.8,320L261.8,320L196.4,320L196.4,320L130.9,320L130.9,320L65.5,320L65.5,320L0,320L0,320Z"></path></svg>
