<?xml version="1.0" standalone="no"?><svg xmlns="http://www.w3.org/2000/svg" viewBox="0 0 1440 320"><path fill="#2A3140" fill-opacity="9" d="M0,128L26.7,133.3C53.3,139,107,149,160,160C213.3,171,267,181,320,154.7C373.3,128,427,64,480,80C533.3,96,587,192,640,213.3C693.3,235,747,181,800,133.3C853.3,85,907,43,960,26.7C1013.3,11,1067,21,1120,42.7C1173.3,64,1227,96,1280,106.7C1333.3,117,1387,107,1413,101.3L1440,96L1440,320L1413.3,320C1386.7,320,1333,320,1280,320C1226.7,320,1173,320,1120,320C1066.7,320,1013,320,960,320C906.7,320,853,320,800,320C746.7,320,693,320,640,320C586.7,320,533,320,480,320C426.7,320,373,320,320,320C266.7,320,213,320,160,320C106.7,320,53,320,27,320L0,320Z"></path></svg>
